<svg width="235" height="210" viewBox="0 0 235 210" fill="none" xmlns="http://www.w3.org/2000/svg">
<path d="M170.399 111.906C169.023 93.1893 160.576 75.4964 150.334 60.7747C159.151 76.6063 168.165 118.832 133.686 161.083C142.028 158.696 152.08 154.702 163.16 148.54C168.293 136.63 171.298 124.125 170.399 111.906Z" fill="#A998C6"/>
<path d="M84.3143 60.7747C74.0723 75.4964 65.6248 93.1893 64.2489 111.906C63.3506 124.126 66.3556 136.63 71.4883 148.54C82.568 154.702 92.62 158.696 100.963 161.083C66.4836 118.832 75.4975 76.6063 84.3143 60.7747Z" fill="#E07391"/>
<path d="M117.324 209.108V164.014C113.19 163.87 107.621 162.988 100.963 161.083C92.62 158.696 82.568 154.702 71.4883 148.54C82.7726 174.723 104.341 198.03 117.324 209.108Z" fill="#AD459A"/>
<path d="M117.324 164.014V209.108C130.307 198.03 151.876 174.723 163.16 148.54C152.08 154.702 142.028 158.696 133.686 161.083C127.027 162.988 121.458 163.87 117.324 164.014Z" fill="#AD459A"/>
<path d="M117.324 67.4414V164.014C121.458 163.87 127.027 162.988 133.686 161.083C168.165 118.832 159.151 76.6063 150.334 60.7747C140.473 60.9558 129.49 62.9784 117.324 67.4414Z" fill="#DE9FBC"/>
<path d="M117.324 164.014V67.4414C105.158 62.9784 94.1751 60.9558 84.3143 60.7747C75.4975 76.6063 66.4836 118.832 100.963 161.083C107.621 162.988 113.19 163.87 117.324 164.014Z" fill="#DE9FBC"/>
<path d="M150.334 60.7747C160.576 75.4964 169.023 93.1893 170.399 111.906C171.298 124.125 168.293 136.63 163.16 148.54C179.629 139.38 198.368 125.429 217.139 104.842C208.498 85.2992 187.301 60.0959 150.334 60.7747Z" fill="#B3D9EE"/>
<path d="M123.518 205.663C142.551 188.783 200.626 136.632 219.816 111.906C219.119 109.684 218.229 107.308 217.139 104.842C198.368 125.429 179.629 139.38 163.16 148.54C151.876 174.723 130.307 198.03 117.324 209.108C117.919 209.116 118.514 209.035 119.081 208.866C120.324 208.495 121.389 207.551 123.518 205.663Z" fill="#9AADD6"/>
<path d="M219.816 111.906C225.847 104.136 230.019 95.5255 232.368 86.5963C227.319 93.1905 222.228 99.2601 217.139 104.842C218.229 107.308 219.119 109.684 219.816 111.906Z" fill="#9AADD6"/>
<path d="M14.8321 111.906C34.0219 136.632 92.0968 188.783 111.131 205.663C113.259 207.551 114.325 208.495 115.567 208.866C116.134 209.035 116.73 209.116 117.324 209.108C104.341 198.03 82.7726 174.723 71.4883 148.54C55.0194 139.38 36.2801 125.429 17.5097 104.842C16.4194 107.308 15.529 109.684 14.8321 111.906Z" fill="#F89A8A"/>
<path d="M2.28011 86.5963C4.62941 95.5255 8.80173 104.136 14.8321 111.906C15.529 109.684 16.4194 107.308 17.5097 104.842C12.4206 99.2601 7.32917 93.1905 2.28011 86.5963Z" fill="#F89A8A"/>
<path d="M64.2489 111.906C65.6248 93.1893 74.0723 75.4964 84.3143 60.7747C47.3471 60.0959 26.1503 85.2992 17.5097 104.842C36.2801 125.429 55.0194 139.38 71.4883 148.54C66.3556 136.63 63.3506 124.126 64.2489 111.906Z" fill="#FBC7A0"/>
<path fill-rule="evenodd" clip-rule="evenodd" d="M117.324 25.7801C93.8671 -1.68041 54.67 -10.1669 25.2798 14.9787C3.56851 33.5543 -4.36218 61.3503 2.28011 86.5963C7.32917 93.1905 12.4206 99.2601 17.5097 104.842C26.1503 85.2992 47.3471 60.0959 84.3143 60.7747C95.4591 44.7554 108.729 32.2542 117.324 25.7801Z" fill="#FDDEA7"/>
<path d="M117.324 25.7801V67.4414C129.49 62.9784 140.473 60.9558 150.334 60.7747C139.189 44.7554 125.92 32.2542 117.324 25.7801Z" fill="#E6CEBA"/>
<path d="M117.324 67.4414V25.7801C108.729 32.2542 95.4591 44.7554 84.3143 60.7747C94.1751 60.9558 105.158 62.9784 117.324 67.4414Z" fill="#E6CEBA"/>
<path d="M209.368 15.7768C179.978 -9.36879 140.781 -0.882311 117.324 26.5782C125.92 33.0523 139.189 45.5535 150.334 61.5728C187.301 60.894 208.498 86.0973 217.139 105.64C222.228 100.058 227.319 93.9886 232.368 87.3944C239.01 62.1484 231.08 34.3524 209.368 15.7768Z" fill="#CBEBE6"/>
</svg>
